<svg width="18" height="18" viewBox="0 0 18 18" fill="none" xmlns="http://www.w3.org/2000/svg">
<path d="M12.1249 17.3334H5.87511C3.00323 17.3334 0.666668 14.9968 0.666668 12.1249V5.87516C0.666668 3.00328 3.00323 0.666718 5.87511 0.666718H12.1252C14.9968 0.666718 17.3333 3.00328 17.3333 5.87516V12.1253C17.3333 14.9968 14.9968 17.3334 12.1249 17.3334ZM5.87511 1.91672C3.69229 1.91672 1.91667 3.69234 1.91667 5.87516V12.1253C1.91667 14.3074 3.69229 16.0834 5.87511 16.0834H12.1252C14.3074 16.0834 16.0833 14.3074 16.0833 12.1249V5.87516C16.0833 3.69234 14.3074 1.91672 12.1249 1.91672H5.87511Z" fill="#313650"/>
<path d="M9.72748 6.57908C10.355 6.57908 10.835 6.05033 10.835 5.48096C10.835 5.02408 10.5581 4.62533 10.0044 4.62533C9.2753 4.62533 8.91092 5.25283 8.91092 5.70939C8.89686 6.25064 9.20342 6.57908 9.72748 6.57908ZM9.66967 12.0047C9.56811 12.0047 9.52405 11.8622 9.62592 11.4478L10.2015 9.10596C10.4206 8.24877 10.3472 7.69314 9.91061 7.69314C9.38655 7.69314 8.16155 8.25314 7.0978 9.21064L7.31686 9.59564C7.65311 9.35314 8.22124 9.10596 8.35092 9.10596C8.45249 9.10596 8.43842 9.24846 8.35092 9.60502L7.84873 11.8328C7.54186 13.0888 7.86248 13.375 8.30061 13.375C8.73873 13.375 9.86811 12.9463 10.9022 11.8325L10.655 11.476C10.2312 11.8325 9.80092 12.0047 9.66967 12.0047Z" fill="#313650"/>
</svg>
