<svg width="18" height="16" viewBox="0 0 18 16" fill="none" xmlns="http://www.w3.org/2000/svg">
<path d="M8.99878 10.5462C9.65258 10.5453 10.2793 10.2852 10.7418 9.82301C11.2042 9.36082 11.4646 8.73419 11.4659 8.0804C11.4659 6.72172 10.3599 5.61455 9.00125 5.61455C8.34745 5.61553 7.7207 5.8756 7.25828 6.33779C6.79585 6.79997 6.53547 7.4266 6.53417 8.0804C6.53417 9.43908 7.6401 10.5462 8.99878 10.5462ZM8.99878 11.7792C8.01822 11.7782 7.07812 11.3881 6.38487 10.6947C5.69163 10.0012 5.3019 9.06096 5.30124 8.0804C5.30124 6.04114 6.96076 4.38163 9.00125 4.38163C9.98181 4.38261 10.9219 4.77265 11.6152 5.46613C12.3084 6.15961 12.6981 7.09984 12.6988 8.0804C12.6988 10.1197 11.0393 11.7792 8.99878 11.7792Z" fill="#313650"/>
<path d="M13.4952 13.504C13.3201 12.6151 13.3288 11.5634 13.7541 10.8298C14.1856 10.0777 15.1079 9.54512 15.9894 9.24798C16.0303 8.97249 16.0623 8.69576 16.0856 8.41823C16.0954 8.29 16.1004 8.17534 16.1004 8.07917C16.1004 7.98177 16.0954 7.86711 16.0856 7.73642C16.0651 7.45984 16.0331 7.18424 15.9894 6.91036C15.0968 6.60459 14.1881 6.0806 13.7553 5.33098C13.3312 4.59739 13.3238 3.55927 13.4952 2.6617L11.4485 1.4707C10.7581 2.0699 9.85191 2.58526 8.99873 2.58526C8.15294 2.58526 7.2566 2.07853 6.55754 1.47563L4.50348 2.65554C4.67856 3.54448 4.66993 4.59616 4.24457 5.32975C3.81305 6.08183 2.89082 6.61446 2.00928 6.91159C1.96843 7.18709 1.93636 7.46381 1.91311 7.74135C1.90416 7.85416 1.89922 7.96725 1.89832 8.0804C1.89832 8.1778 1.90325 8.29247 1.91311 8.42316C1.93355 8.69974 1.96563 8.97534 2.00928 9.24922C2.90192 9.55498 3.81058 10.079 4.24334 10.8286C4.66746 11.5622 4.67486 12.6003 4.50348 13.4979L6.55014 14.6889C7.24058 14.0897 8.14678 13.5743 8.99996 13.5743C9.84821 13.5743 10.7482 14.0847 11.4424 14.6839L13.494 13.5028L13.4952 13.504ZM11.4251 15.9773C11.1806 15.9784 10.9441 15.8898 10.7606 15.7282C10.5017 15.4903 9.62505 14.8085 9.00119 14.8085C8.3724 14.8085 7.49702 15.4903 7.24181 15.7282C7.1026 15.8518 6.93144 15.9338 6.74787 15.9648C6.56431 15.9957 6.37573 15.9744 6.20369 15.9033L6.15314 15.8786L3.62564 14.4139C3.47964 14.2993 3.36825 14.1464 3.30383 13.9723C3.23941 13.7982 3.22448 13.6097 3.2607 13.4276C3.33714 13.0873 3.48879 11.9863 3.17686 11.4463C2.86616 10.9063 1.83544 10.4883 1.50008 10.381C1.3285 10.3224 1.17527 10.2198 1.05565 10.0835C0.936025 9.94727 0.854186 9.78204 0.818276 9.6043C0.812111 9.56731 0.666626 8.71043 0.666626 8.08164C0.666626 7.45285 0.812111 6.59843 0.818276 6.56021C0.854296 6.38233 0.93632 6.217 1.05617 6.08071C1.17602 5.94442 1.3295 5.84193 1.50132 5.78347C1.83544 5.67867 2.86616 5.26071 3.17809 4.71699C3.49125 4.1745 3.34084 3.0772 3.2607 2.73568C3.22347 2.5536 3.23792 2.36473 3.30241 2.19043C3.3669 2.01613 3.47886 1.86334 3.62564 1.74934L3.67249 1.71728L6.19999 0.257502C6.37219 0.186138 6.56101 0.16471 6.74483 0.195673C6.92864 0.226636 7.10002 0.308738 7.23934 0.432577C7.49826 0.670532 8.37487 1.35234 8.99873 1.35234C9.62752 1.35234 10.5029 0.670532 10.7581 0.432577C10.8973 0.308973 11.0685 0.227012 11.252 0.196053C11.4356 0.165095 11.6242 0.186389 11.7962 0.257502L11.8468 0.282161L14.3743 1.74687C14.5203 1.86152 14.6317 2.01438 14.6961 2.18849C14.7605 2.36259 14.7754 2.55114 14.7392 2.73321C14.6628 3.0735 14.5111 4.1745 14.8231 4.71452C15.1338 5.25454 16.1645 5.6725 16.4998 5.77977C16.6714 5.83842 16.8246 5.94098 16.9443 6.07726C17.0639 6.21354 17.1457 6.37877 17.1816 6.55651C17.1878 6.5935 17.3333 7.45038 17.3333 8.07917C17.3333 8.70796 17.1878 9.56238 17.1816 9.6006C17.1456 9.77848 17.0636 9.94381 16.9438 10.0801C16.8239 10.2164 16.6704 10.3189 16.4986 10.3773C16.1645 10.4821 15.1338 10.9001 14.8218 11.4438C14.5087 11.9863 14.6591 13.0836 14.7392 13.4251C14.7762 13.6072 14.7616 13.796 14.6971 13.9702C14.6326 14.1445 14.5208 14.2973 14.3743 14.4115L14.3274 14.4435L11.7999 15.9033C11.6808 15.9516 11.5536 15.9767 11.4251 15.9773Z" fill="#313650"/>
</svg>
