<svg width="24" height="24" viewBox="0 0 24 24" fill="none" xmlns="http://www.w3.org/2000/svg">
<path d="M12 24C5.3825 24 0 18.6175 0 12C0 5.3825 5.3825 0 12 0C18.6175 0 24 5.3825 24 12C24 18.6175 18.6175 24 12 24ZM12 1.6C6.265 1.6 1.6 6.265 1.6 12C1.6 17.735 6.265 22.4 12 22.4C17.735 22.4 22.4 17.735 22.4 12C22.4 6.265 17.735 1.6 12 1.6Z" fill="#313650"/>
<path fill-rule="evenodd" clip-rule="evenodd" d="M12.8079 6.40495C12.8079 5.96312 12.4498 5.60495 12.0079 5.60495C11.5661 5.60495 11.2079 5.96312 11.2079 6.40495V11.2055H6.4C5.95817 11.2055 5.6 11.5636 5.6 12.0055C5.6 12.4473 5.95817 12.8055 6.4 12.8055H11.2079V17.6049C11.2079 18.0468 11.5661 18.4049 12.0079 18.4049C12.4498 18.4049 12.8079 18.0468 12.8079 17.6049V12.8055H17.6C18.0418 12.8055 18.4 12.4473 18.4 12.0055C18.4 11.5636 18.0418 11.2055 17.6 11.2055H12.8079V6.40495Z" fill="#313650"/>
</svg>
