<svg width="25" height="24" viewBox="0 0 25 24" fill="none" xmlns="http://www.w3.org/2000/svg">
<path d="M20.0203 0.867676C20.3298 0.867676 20.6265 0.990592 20.8453 1.20938C21.0641 1.42818 21.187 1.72492 21.187 2.03434V6.70101C21.187 7.01043 21.0641 7.30717 20.8453 7.52597C20.6265 7.74476 20.3298 7.86768 20.0203 7.86768H14.187C13.8776 7.86768 13.5808 7.74476 13.362 7.52597C13.1433 7.30717 13.0203 7.01043 13.0203 6.70101V2.03434C13.0203 1.72492 13.1433 1.42818 13.362 1.20938C13.5808 0.990592 13.8776 0.867676 14.187 0.867676H20.0203ZM24.1037 1.81268C24.2584 1.81268 24.4068 1.87413 24.5162 1.98353C24.6255 2.09293 24.687 2.2413 24.687 2.39601V6.33934C24.6872 6.43892 24.6619 6.53688 24.6135 6.62391C24.5651 6.71094 24.4953 6.78414 24.4106 6.83654C24.3259 6.88893 24.2293 6.91878 24.1298 6.92324C24.0303 6.9277 23.9314 6.90662 23.8423 6.86201L21.1905 5.53434V3.20101L23.8435 1.87334C23.9246 1.83269 24.0141 1.81152 24.1048 1.81151L24.1037 1.81268ZM18.6437 18.4108C18.8915 18.5537 19.0781 18.7825 19.1683 19.054C19.2584 19.3254 19.2457 19.6205 19.1325 19.8832C18.7615 20.8725 18.387 21.5562 18.0078 21.9353C17.4971 22.4465 16.8598 22.813 16.161 22.9973C15.4623 23.1815 14.7271 23.177 14.0307 22.9842C10.6915 22.2936 7.62838 20.6381 5.22117 18.223C2.80627 15.8154 1.15118 12.7519 0.461175 9.41234C0.268277 8.71619 0.263623 7.9813 0.447687 7.28276C0.631752 6.58422 0.997938 5.94705 1.50884 5.43634C1.88801 5.05718 2.57167 4.68268 3.55984 4.31284C3.82224 4.19992 4.11695 4.1872 4.38811 4.27708C4.65926 4.36696 4.88802 4.55321 5.03101 4.80051L7.76101 9.52901C8.07134 10.0657 7.91267 10.5615 7.39467 11.0807C6.94434 11.4843 6.57801 11.7702 6.29567 11.9393C6.87317 13.0103 7.61517 14.0172 8.52051 14.9225C9.42701 15.829 10.4338 16.571 11.5072 17.1497C11.6308 16.9105 11.9178 16.5465 12.3682 16.0542C12.8057 15.6167 13.2758 15.3985 13.7892 15.6178L13.9152 15.6808L18.6437 18.4108Z" fill="#444B59"/>
</svg>
