<svg width="23" height="20" viewBox="0 0 23 20" fill="none" xmlns="http://www.w3.org/2000/svg">
<path d="M20.8734 19.8H2.12656C1.6043 19.8 1.10117 19.5949 0.732031 19.2257C0.360156 18.8593 0.152344 18.3617 0.152344 17.8394V4.6105C0.155078 3.52769 1.03828 2.64995 2.12656 2.64995H6.32109L7.5543 0.689404C7.5543 0.418701 8.26797 0.199951 8.54141 0.199951H14.4613C14.732 0.199951 15.4484 0.418701 15.4484 0.689404L16.6816 2.64995H20.8734C21.9617 2.64722 22.8449 3.52495 22.8477 4.6105V17.8421C22.8449 18.925 21.9617 19.8027 20.8734 19.8ZM11.5 4.6105C7.95625 4.6105 5.08516 7.46245 5.08516 10.9816C5.08516 14.5007 7.95625 17.35 11.5 17.35C15.0437 17.35 17.9148 14.498 17.9148 10.9816C17.9148 7.46245 15.0437 4.6105 11.5 4.6105ZM11.5 15.3894C9.04727 15.3894 7.05938 13.4152 7.05938 10.9789C7.05938 8.54253 9.04727 6.56831 11.5 6.56831C13.9527 6.56831 15.9406 8.54253 15.9406 10.9789C15.9406 13.4152 13.9527 15.3894 11.5 15.3894Z" fill="#444B59"/>
</svg>
