<svg width="17" height="18" viewBox="0 0 17 18" fill="none" xmlns="http://www.w3.org/2000/svg">
<path d="M15.3417 12.8347V12.9323H15.4394H15.8182C16.1809 12.9323 16.4781 13.2295 16.4781 13.5922C16.4781 13.955 16.1809 14.2522 15.8182 14.2522H11.9545H11.8764L11.8593 14.3284C11.5282 15.7996 10.2037 16.9037 8.62122 16.9037C7.03875 16.9037 5.71418 15.7996 5.38316 14.3284L5.36601 14.2522H5.28788H1.42425C1.06151 14.2522 0.764328 13.955 0.764328 13.5922C0.764328 13.2295 1.06151 12.9323 1.42425 12.9323H1.80304H1.90069V12.8347V7.15284C1.90069 3.45677 4.92515 0.432312 8.62122 0.432312C12.3173 0.432312 15.3417 3.45677 15.3417 7.15284V12.8347ZM6.87879 14.2522H6.72852L6.78955 14.3895C7.10797 15.1059 7.82436 15.5838 8.62122 15.5838C9.41808 15.5838 10.1345 15.1059 10.4529 14.3895L10.5139 14.2522H10.3636H6.87879Z" fill="white" stroke="#313650" stroke-width="0.195312"/>
</svg>
