<svg width="29" height="28" viewBox="0 0 29 28" fill="none" xmlns="http://www.w3.org/2000/svg">
<path fill-rule="evenodd" clip-rule="evenodd" d="M24.9908 4.86477C19.4266 -1.38356 9.66496 -1.40316 4.07577 4.82278L3.20818 5.78921C1.43093 7.76893 0.504126 10.3355 0.504126 12.996C0.504126 16.1366 1.81653 19.1214 4.19642 21.1708L9.96138 26.1351C12.6002 28.4075 16.5066 28.3997 19.1363 26.1168L24.8152 21.1868C27.1888 19.1263 28.5137 16.1373 28.5137 12.9941C28.5137 10.3336 27.5745 7.76622 25.8053 5.77939L24.9908 4.86477ZM24.6731 17.4513C24.8528 17.6331 25.6571 17.1293 26.4696 16.3262C27.2821 15.523 27.7951 14.7246 27.6154 14.5428C27.4357 14.3611 26.6314 14.8648 25.8189 15.6679C25.0064 16.4711 24.4934 17.2695 24.6731 17.4513ZM23.0732 19.5214C22.2607 20.3245 21.4564 20.8283 21.2767 20.6465C21.097 20.4647 21.61 19.6663 22.4225 18.8632C23.235 18.06 24.0394 17.5563 24.219 17.7381C24.3987 17.9198 23.8857 18.7183 23.0732 19.5214ZM18.0289 23.8576C18.2086 24.0394 19.0129 23.5357 19.8254 22.7325C20.6379 21.9294 21.151 21.131 20.9713 20.9492C20.7916 20.7674 19.9873 21.2712 19.1748 22.0743C18.3623 22.8774 17.8493 23.6759 18.0289 23.8576ZM4.68784 18.4119C5.51282 19.2022 6.32492 19.6933 6.50173 19.5087C6.67853 19.3242 6.15308 18.5339 5.3281 17.7435C4.50313 16.9532 3.69102 16.4621 3.51422 16.6467C3.33741 16.8312 3.86286 17.6215 4.68784 18.4119ZM9.79934 22.6686C9.62253 22.8532 8.81043 22.3621 7.98545 21.5718C7.16047 20.7814 6.63503 19.9911 6.81183 19.8066C6.98864 19.622 7.80074 20.1131 8.62572 20.9034C9.4507 21.6938 9.97614 22.4841 9.79934 22.6686ZM11.3512 9.60517C11.7948 11.2607 13.5545 12.2277 15.2816 11.7649C17.0087 11.3021 18.0492 9.58486 17.6056 7.9293C17.162 6.27374 15.4023 5.30679 13.6752 5.76957C11.948 6.23235 10.9076 7.9496 11.3512 9.60517ZM5.85807 14.179C5.80847 14.1376 5.73476 14.1443 5.69342 14.1939C5.65209 14.2435 5.65879 14.3172 5.70839 14.3586L11.307 19.2051C13.2453 20.8831 14.359 23.3203 14.359 25.8839C14.359 25.9485 14.4113 26.0009 14.4759 26.0009C14.5405 26.0009 14.5928 25.9485 14.5928 25.8839C14.5928 23.3232 15.7179 20.8917 17.6697 19.2341L23.3931 14.3735C23.4427 14.3322 23.4494 14.2585 23.4081 14.2089C23.3667 14.1593 23.293 14.1526 23.2434 14.1939L22.1165 15.151C17.7203 18.8848 11.2579 18.8541 6.8973 15.0787L5.85807 14.179Z" fill="#444B59"/>
</svg>
