<svg width="24" height="24" viewBox="0 0 24 24" fill="none" xmlns="http://www.w3.org/2000/svg">
<path d="M12 24C5.3825 24 0 18.6175 0 12C0 5.3825 5.3825 0 12 0C18.6175 0 24 5.3825 24 12C24 18.6175 18.6175 24 12 24ZM12 1.6C6.265 1.6 1.6 6.265 1.6 12C1.6 17.735 6.265 22.4 12 22.4C17.735 22.4 22.4 17.735 22.4 12C22.4 6.265 17.735 1.6 12 1.6Z" fill="#313650"/>
<path d="M12 19.2C10.05 19.2 8.22253 18.4325 6.85753 17.0375C5.53003 15.685 4.80003 13.895 4.80003 12C4.80003 11.5575 5.15753 11.2 5.60003 11.2H18.4C18.8425 11.2 19.2 11.5575 19.2 12C19.2 13.895 18.47 15.685 17.1425 17.0375C15.7775 18.4325 13.95 19.2 12 19.2ZM8.00003 15.92C9.06253 17.005 10.4825 17.6 12 17.6C13.5175 17.6 14.9375 17.0025 16 15.92C16.8425 15.06 17.375 13.9725 17.5425 12.8H6.45753C6.62253 13.9725 7.15753 15.0575 8.00003 15.92ZM8.40003 9.59997C7.73753 9.59997 7.20003 9.06247 7.20003 8.39997C7.20003 7.73747 7.73753 7.19997 8.40003 7.19997C9.06253 7.19997 9.60003 7.73747 9.60003 8.39997C9.60003 9.06247 9.06253 9.59997 8.40003 9.59997ZM15.6 9.59997C14.9375 9.59997 14.4 9.06247 14.4 8.39997C14.4 7.73747 14.9375 7.19997 15.6 7.19997C16.2625 7.19997 16.8 7.73747 16.8 8.39997C16.8 9.06247 16.2625 9.59997 15.6 9.59997Z" fill="#313650"/>
</svg>
