<svg width="22" height="27" viewBox="0 0 22 27" fill="none" xmlns="http://www.w3.org/2000/svg">
<path d="M20.464 3.06583C20.1653 2.75783 19.764 2.3705 19.26 1.90383C18.7933 1.49317 18.406 1.1665 18.098 0.923832C17.79 0.681165 17.5333 0.494499 17.328 0.363832C17.1227 0.233165 16.9407 0.144499 16.782 0.097832C16.6233 0.0511654 16.4693 0.027832 16.32 0.027832H16.236V3.49983C16.236 3.61183 16.2593 3.76583 16.306 3.96183C16.3527 4.15783 16.4227 4.34916 16.516 4.53583C16.6093 4.7225 16.726 4.88583 16.866 5.02583C17.006 5.16583 17.1693 5.23583 17.356 5.23583H21.5V4.78783C21.5 4.67583 21.4813 4.54517 21.444 4.39583C21.4067 4.2465 21.3087 4.0645 21.15 3.84983C20.9913 3.63517 20.7627 3.37383 20.464 3.06583Z" fill="#313650"/>
<path fill-rule="evenodd" clip-rule="evenodd" d="M14.64 4.68983C14.528 4.2885 14.472 3.90117 14.472 3.52783V0.027832H3.776C3.34667 0.027832 2.936 0.144499 2.544 0.377832C2.152 0.611165 1.802 0.905165 1.494 1.25983C1.186 1.6145 0.943333 2.00183 0.766 2.42183C0.588667 2.84183 0.5 3.24783 0.5 3.63983V22.6798C0.5 23.1465 0.621333 23.5945 0.864 24.0238C1.10667 24.4532 1.41 24.8358 1.774 25.1718C2.138 25.5078 2.53 25.7785 2.95 25.9838C3.37 26.1892 3.75733 26.2918 4.112 26.2918H17.888C18.2987 26.2918 18.7187 26.2078 19.148 26.0398C19.5773 25.8718 19.9693 25.6385 20.324 25.3398C20.6787 25.0412 20.9633 24.6772 21.178 24.2478C21.3927 23.8185 21.5 23.3332 21.5 22.7918V6.99983H17.412C16.908 6.99983 16.4693 6.88783 16.096 6.66383C15.7227 6.43983 15.4147 6.15517 15.172 5.80983C14.9293 5.4645 14.752 5.09117 14.64 4.68983ZM17.4167 14.2053C17.4167 13.8278 17.2764 13.5047 16.9958 13.2361C16.7153 12.9675 16.3724 12.8333 15.9671 12.8333H6.0329C5.62764 12.8333 5.28474 12.9675 5.00418 13.2361C4.72361 13.5047 4.58333 13.8278 4.58333 14.2053C4.58333 14.5827 4.72361 14.9021 5.00418 15.1635C5.28474 15.4248 5.62764 15.5555 6.0329 15.5555H15.9671C16.3724 15.5555 16.7153 15.4248 16.9958 15.1635C17.2764 14.9021 17.4167 14.5827 17.4167 14.2053ZM15.9671 20.9999C16.3724 20.9999 16.7153 20.8656 16.9958 20.597C17.2764 20.3284 17.4167 20.0054 17.4167 19.6279C17.4167 19.2504 17.2764 18.931 16.9958 18.6697C16.7153 18.4084 16.3724 18.2777 15.9671 18.2777H6.0329C5.62764 18.2777 5.28474 18.4084 5.00418 18.6697C4.72361 18.931 4.58333 19.2504 4.58333 19.6279C4.58333 20.0054 4.72361 20.3284 5.00418 20.597C5.28474 20.8656 5.62764 20.9999 6.0329 20.9999H15.9671Z" fill="#313650"/>
</svg>
