<svg width="16" height="16" viewBox="0 0 16 16" fill="none" xmlns="http://www.w3.org/2000/svg">
<path d="M5.60356 6.14001H10.3863C10.6494 6.14001 10.8637 6.35435 10.8637 6.61749C10.8637 6.88063 10.6494 7.09497 10.3863 7.09497H5.60356C5.34045 7.09497 5.12614 6.88063 5.12614 6.61749C5.12614 6.35435 5.34045 6.14001 5.60356 6.14001ZM5.60356 3.41779H7.51537C7.77849 3.41779 7.9928 3.63212 7.9928 3.89527C7.9928 4.15841 7.77849 4.37275 7.51537 4.37275H5.60356C5.34045 4.37275 5.12614 4.15841 5.12614 3.89527C5.12614 3.63212 5.34045 3.41779 5.60356 3.41779ZM4.65296 1.24552C4.12461 1.24552 3.69599 1.67419 3.69599 2.2026V8.00237L7.99916 9.91653L12.2323 8.00449L12.2917 2.21321V2.2026C12.2917 1.67419 11.8631 1.24552 11.3348 1.24552H4.65296ZM1.30463 7.88353V13.7512C1.30463 14.2796 1.73325 14.7083 2.2616 14.7083H13.7388C14.2672 14.7083 14.6958 14.2796 14.6958 13.7512V7.89627L8.2453 10.9054C8.17528 10.9436 8.09677 10.9649 8.01614 10.9649C7.9355 10.9649 7.857 10.9436 7.78697 10.9054L1.30463 7.88353ZM2.73902 5.65105V2.26202C2.73902 1.2052 3.59626 0.349978 4.65084 0.349978H11.3475C12.4042 0.349978 13.2593 1.20732 13.2593 2.26202V5.64469L15.3748 6.63148C15.5615 6.71848 15.6655 6.90948 15.6485 7.10471C15.6507 7.13018 15.6507 7.15564 15.6485 7.18111V13.7385C15.6485 14.7953 14.7913 15.6505 13.7367 15.6505H2.2616C1.2049 15.6505 0.349787 14.7932 0.349787 13.7385V7.15352H0.362518C0.362518 7.13654 0.362518 7.11957 0.36464 7.10259C0.349787 6.90948 0.453759 6.71848 0.640484 6.6336L2.73902 5.65105ZM2.73902 7.4973V7.1514H1.99849L2.73902 7.4973ZM13.2614 6.70151V7.15352V7.51216L14.0295 7.15352L13.2614 6.70151ZM2.73902 6.70787L1.89239 7.10259L2.00061 7.15352H2.74114V6.70787H2.73902Z" fill="#313650"/>
<path fill-rule="evenodd" clip-rule="evenodd" d="M2.73902 5.65105V2.26202C2.73902 1.2052 3.59626 0.349978 4.65084 0.349978H11.3475C12.4042 0.349978 13.2593 1.20732 13.2593 2.26202V5.64469L15.3748 6.63148C15.5615 6.71848 15.6655 6.90948 15.6485 7.10471C15.6507 7.13018 15.6507 7.15564 15.6485 7.18111V13.7385C15.6485 14.7953 14.7913 15.6505 13.7367 15.6505H2.2616C1.2049 15.6505 0.349787 14.7932 0.349787 13.7385V7.15352H0.362518C0.362518 7.13654 0.362518 7.11957 0.36464 7.10259C0.349787 6.90948 0.453759 6.71848 0.640484 6.6336L2.73902 5.65105ZM0.58705 6.51783L2.61152 5.56996V2.26202C2.61152 1.1347 3.52592 0.222473 4.65084 0.222473H11.3475C12.4747 0.222473 13.3868 1.13701 13.3868 2.26202V5.56347L15.4287 6.5159C15.6618 6.62455 15.7932 6.86155 15.7764 7.10496C15.7782 7.132 15.778 7.15905 15.776 7.18608V13.7385C15.776 14.8658 14.8616 15.778 13.7367 15.778H2.2616C1.13438 15.778 0.222282 14.8635 0.222282 13.7385V7.02602H0.237077C0.25128 6.81294 0.377922 6.6132 0.58705 6.51783ZM5.60356 6.01251H10.3863C10.7198 6.01251 10.9912 6.28394 10.9912 6.61749C10.9912 6.95104 10.7198 7.22247 10.3863 7.22247H5.60356C5.27001 7.22247 4.99863 6.95104 4.99863 6.61749C4.99863 6.28394 5.27001 6.01251 5.60356 6.01251ZM5.60356 3.29028H7.51537C7.84892 3.29028 8.1203 3.56172 8.1203 3.89527C8.1203 4.22882 7.84892 4.50025 7.51537 4.50025H5.60356C5.27001 4.50025 4.99863 4.22882 4.99863 3.89527C4.99863 3.56172 5.27001 3.29028 5.60356 3.29028ZM4.65296 1.37302C4.19504 1.37302 3.82349 1.74459 3.82349 2.2026V7.91962L7.99876 9.7768L12.1056 7.9218L12.1642 2.21321V2.2026C12.1642 1.74459 11.7927 1.37302 11.3348 1.37302H4.65296ZM12.2917 2.21321L12.2323 8.00449L7.99916 9.91653L3.69599 8.00237V2.2026C3.69599 1.67419 4.12461 1.24552 4.65296 1.24552H11.3348C11.8631 1.24552 12.2917 1.67419 12.2917 2.2026V2.21321ZM1.43214 8.08365V13.7512C1.43214 14.2092 1.80369 14.5808 2.2616 14.5808H13.7388C14.1968 14.5808 14.5683 14.2092 14.5683 13.7512V8.09644L8.30263 11.0194C8.21583 11.066 8.11779 11.0924 8.01614 11.0924C7.91448 11.0924 7.81644 11.066 7.72965 11.0194L1.43214 8.08365ZM7.78697 10.9054C7.857 10.9436 7.9355 10.9649 8.01614 10.9649C8.09677 10.9649 8.17528 10.9436 8.2453 10.9054L14.6958 7.89627V13.7512C14.6958 14.2796 14.2672 14.7083 13.7388 14.7083H2.2616C1.73325 14.7083 1.30463 14.2796 1.30463 13.7512V7.88353L7.78697 10.9054ZM10.3863 6.14001H5.60356C5.34045 6.14001 5.12614 6.35435 5.12614 6.61749C5.12614 6.88063 5.34045 7.09497 5.60356 7.09497H10.3863C10.6494 7.09497 10.8637 6.88063 10.8637 6.61749C10.8637 6.35435 10.6494 6.14001 10.3863 6.14001ZM7.51537 3.41779H5.60356C5.34045 3.41779 5.12614 3.63212 5.12614 3.89527C5.12614 4.15841 5.34045 4.37275 5.60356 4.37275H7.51537C7.77849 4.37275 7.9928 4.15841 7.9928 3.89527C7.9928 3.63212 7.77849 3.41779 7.51537 3.41779Z" fill="#313650"/>
</svg>
