<svg width="30" height="23" viewBox="0 0 30 23" fill="none" xmlns="http://www.w3.org/2000/svg">
<path d="M2.70703 1.4541H5.92682V2.63346H2.70703V1.4541Z" fill="#999DA6"/>
<path d="M26.7802 3.60509H22.8367C22.4347 3.60509 22.0594 3.40407 21.8383 3.06902L20.1497 0.536073C19.9285 0.201027 19.5533 0 19.1512 0H10.8387C10.4367 0 10.0614 0.201027 9.8403 0.536073L8.15501 3.06902C7.93388 3.40407 7.55863 3.60509 7.15658 3.60509H3.21979C1.4407 3.60509 0 5.04914 0 6.82488V19.7342C0 21.5133 1.44405 22.954 3.21979 22.954H26.7802C28.5593 22.954 30 21.5099 30 19.7342V6.82488C30 5.04914 28.5593 3.60509 26.7802 3.60509ZM15 20.5819C11.1972 20.5819 8.09806 17.4894 8.09806 13.6799C8.09806 9.87715 11.1939 6.77798 15 6.77798C18.8028 6.77798 21.9019 9.8738 21.9019 13.6799C21.9019 17.486 18.8028 20.5819 15 20.5819ZM24.8068 6.74782C24.8068 7.27719 24.3779 7.7027 23.8486 7.70605H23.8318C23.3024 7.70605 22.8736 7.27719 22.8736 6.74782V6.73107C22.8736 6.2017 23.3024 5.77284 23.8318 5.77284H23.8486C24.3779 5.77284 24.8068 6.2017 24.8068 6.73107V6.74782Z" fill="#999DA6"/>
<path d="M14.9996 8.28223C12.0177 8.28223 9.59863 10.7013 9.59863 13.6832C9.59863 16.6684 12.0177 19.0841 14.9996 19.0841C17.9848 19.0841 20.4005 16.6684 20.4005 13.6832C20.4005 10.7013 17.9848 8.28223 14.9996 8.28223V8.28223Z" fill="#999DA6"/>
</svg>
