<svg width="20" height="20" viewBox="0 0 20 20" fill="none" xmlns="http://www.w3.org/2000/svg">
<path d="M18.1191 7.34336L12.6575 1.88169C12.5891 1.81328 12.5079 1.75907 12.4185 1.72217C12.3291 1.68527 12.2333 1.66642 12.1366 1.66669C12.0399 1.66642 11.9441 1.68527 11.8547 1.72217C11.7654 1.75907 11.6842 1.81328 11.6158 1.88169L8.35734 5.14244L14.857 11.6421L18.1191 8.38002C18.2563 8.24241 18.3334 8.05601 18.3334 7.86169C18.3334 7.66737 18.2563 7.48097 18.1191 7.34336Z" fill="white"/>
<path d="M5.12348 3.08921L16.9086 14.8743L16.3193 15.4636L14.5383 13.6826C14.4911 14.0608 14.4143 14.4355 14.3082 14.8034C14.0412 15.7292 13.5941 16.5932 12.9925 17.3459C12.9236 17.4319 12.8362 17.5013 12.7368 17.5489C12.6374 17.5965 12.5285 17.6211 12.4183 17.6209C12.3216 17.6211 12.2258 17.6023 12.1364 17.5654C12.047 17.5285 11.9658 17.4743 11.8975 17.4059L7.86997 13.3784L3.09581 18.1525C3.0379 18.2111 2.96118 18.2474 2.87914 18.255L2.05414 18.33C2.04247 18.3325 2.03164 18.3325 2.02081 18.3325C1.97161 18.3326 1.92294 18.3224 1.8779 18.3026C1.83287 18.2828 1.79247 18.2538 1.75928 18.2175C1.7261 18.1812 1.70087 18.1383 1.6852 18.0917C1.66954 18.0451 1.66378 17.9957 1.66831 17.9467L1.74331 17.1217C1.75068 17.0398 1.78668 16.9631 1.84497 16.905L6.61997 12.135L2.59247 8.10752C2.51936 8.03432 2.46249 7.94655 2.42556 7.84991C2.38863 7.75327 2.37247 7.64993 2.37813 7.54663C2.38379 7.44333 2.41115 7.34238 2.45841 7.25036C2.50568 7.15833 2.5718 7.0773 2.65247 7.01252C3.71306 6.16339 4.9844 5.63066 6.32105 5.46529L4.53423 3.67847L5.12348 3.08921Z" fill="white"/>
</svg>
