<svg width="20" height="20" viewBox="0 0 20 20" fill="none" xmlns="http://www.w3.org/2000/svg">
<path d="M16.8182 14.1667H16.4394V8.48487C16.4394 4.73487 13.3712 1.66669 9.62123 1.66669C5.87123 1.66669 2.80305 4.73487 2.80305 8.48487V14.1667H2.42426C2.0076 14.1667 1.66669 14.5076 1.66669 14.9243C1.66669 15.3409 2.0076 15.6818 2.42426 15.6818H6.2879C6.62881 17.197 7.99244 18.3334 9.62123 18.3334C11.25 18.3334 12.6137 17.197 12.9546 15.6818H16.8182C17.2349 15.6818 17.5758 15.3409 17.5758 14.9243C17.5758 14.5076 17.2349 14.1667 16.8182 14.1667ZM9.62123 16.8182C8.86366 16.8182 8.18184 16.3637 7.87881 15.6818H11.3637C11.0606 16.3637 10.3788 16.8182 9.62123 16.8182Z" fill="white"/>
</svg>
