<svg width="20" height="20" viewBox="0 0 20 20" fill="none" xmlns="http://www.w3.org/2000/svg">
<path d="M18.1192 7.34336L12.6575 1.88169C12.5892 1.81328 12.5079 1.75907 12.4186 1.72217C12.3292 1.68527 12.2334 1.66642 12.1367 1.66669C12.04 1.66642 11.9442 1.68527 11.8548 1.72217C11.7654 1.75907 11.6842 1.81328 11.6158 1.88169L8.045 5.45502C7.77414 5.4245 7.50175 5.40948 7.22917 5.41002C5.56565 5.4075 3.9511 5.97283 2.6525 7.01252C2.57183 7.07729 2.50571 7.15833 2.45844 7.25036C2.41118 7.34238 2.38382 7.44333 2.37816 7.54663C2.3725 7.64993 2.38866 7.75327 2.42559 7.84991C2.46252 7.94655 2.51939 8.03432 2.5925 8.10752L6.62 12.135L1.845 16.905C1.78671 16.9631 1.75071 17.0398 1.74334 17.1217L1.66834 17.9467C1.66381 17.9957 1.66957 18.0451 1.68523 18.0917C1.7009 18.1383 1.72613 18.1812 1.75931 18.2175C1.7925 18.2538 1.8329 18.2828 1.87793 18.3026C1.92297 18.3224 1.97164 18.3326 2.02084 18.3325C2.03167 18.3325 2.0425 18.3325 2.05417 18.33L2.87917 18.255C2.96121 18.2474 3.03793 18.2111 3.09584 18.1525L7.87 13.3784L11.8975 17.4059C11.9659 17.4743 12.0471 17.5285 12.1364 17.5654C12.2258 17.6023 12.3216 17.6211 12.4183 17.6209C12.5286 17.6211 12.6374 17.5965 12.7368 17.5489C12.8362 17.5013 12.9236 17.4319 12.9925 17.3459C13.5941 16.5932 14.0412 15.7292 14.3082 14.8034C14.5752 13.8776 14.6568 12.9083 14.5483 11.9509L18.1192 8.38002C18.2564 8.2424 18.3334 8.05601 18.3334 7.86169C18.3334 7.66737 18.2564 7.48097 18.1192 7.34336Z" fill="white"/>
</svg>
