<svg width="20" height="20" viewBox="0 0 20 20" fill="none" xmlns="http://www.w3.org/2000/svg">
<path d="M17.1765 15.5911C17.4137 15.4628 17.5757 15.2115 17.5757 14.9243C17.5757 14.5076 17.2348 14.1667 16.8182 14.1667H16.4394V8.48487C16.4394 4.73487 13.3712 1.66669 9.6212 1.66669C7.85978 1.66669 6.24879 2.34362 5.03553 3.45018L17.1765 15.5911Z" fill="white"/>
<path fill-rule="evenodd" clip-rule="evenodd" d="M7.87878 15.6818C8.18181 16.3637 8.86363 16.8182 9.6212 16.8182C10.3788 16.8182 11.0606 16.3637 11.3636 15.6818H7.87878Z" fill="white"/>
<path fill-rule="evenodd" clip-rule="evenodd" d="M2.84518 2.98818L1.66667 4.16669L3.33996 5.83998C2.99439 6.6543 2.80302 7.54832 2.80302 8.48487V14.1667H2.42423C2.00757 14.1667 1.66666 14.5076 1.66666 14.9243C1.66666 15.3409 2.00757 15.6818 2.42423 15.6818H6.28787C6.62878 17.197 7.99241 18.3334 9.6212 18.3334C11.25 18.3334 12.6136 17.197 12.9545 15.6818H13.1818L15.8333 18.3334L17.0118 17.1548L2.84518 2.98818ZM7.87878 15.6818C8.18181 16.3637 8.86363 16.8182 9.6212 16.8182C10.3788 16.8182 11.0606 16.3637 11.3636 15.6818H7.87878Z" fill="white"/>
</svg>
