<svg width="29" height="22" viewBox="0 0 29 22" fill="none" xmlns="http://www.w3.org/2000/svg">
<path fill-rule="evenodd" clip-rule="evenodd" d="M28.5 18.237C28.5 19.9541 27.0951 21.359 25.378 21.359H3.62195C1.90488 21.359 0.5 19.9541 0.5 18.237V3.76306C0.5 2.04599 1.90488 0.641113 3.62195 0.641113H25.378C27.0951 0.641113 28.5 2.04599 28.5 3.76306V18.237ZM5.37279 7.61509C5.37279 8.07126 5.46264 8.52297 5.63721 8.94441C5.81178 9.36586 6.06765 9.7488 6.39021 10.0714C6.71277 10.3939 7.09571 10.6498 7.51716 10.8244C7.9386 10.9989 8.39031 11.0888 8.84648 11.0888C9.30265 11.0888 9.75435 10.9989 10.1758 10.8244C10.5972 10.6498 10.9802 10.3939 11.3027 10.0714C11.6253 9.7488 11.8812 9.36586 12.0557 8.94441C12.2303 8.52297 12.3202 8.07126 12.3202 7.61509C12.3202 7.15892 12.2303 6.70721 12.0557 6.28577C11.8812 5.86432 11.6253 5.48138 11.3027 5.15882C10.9802 4.83626 10.5972 4.58039 10.1758 4.40582C9.75435 4.23125 9.30265 4.1414 8.84648 4.1414C8.39031 4.1414 7.9386 4.23125 7.51716 4.40582C7.09571 4.58039 6.71277 4.83626 6.39021 5.15882C6.06765 5.48138 5.81178 5.86432 5.63721 6.28577C5.46264 6.70721 5.37279 7.15892 5.37279 7.61509ZM13.693 15.6871C13.693 17.4039 4 17.4039 4 15.6871C4 13.9703 5.49102 12.5797 8.85055 12.5797C12.2019 12.5797 13.693 13.9703 13.693 15.6871ZM24.9717 8.28229C24.9717 8.64555 24.8336 8.97422 24.6159 9.21639C24.3929 9.45857 24.0902 9.60272 23.7556 9.60272H17.0664C16.3974 9.60272 15.8451 9.00881 15.8451 8.27652C15.8451 7.91326 15.9832 7.5846 16.2009 7.34242C16.4239 7.10025 16.7266 6.9561 17.0611 6.9561H23.7503C24.4247 6.9561 24.9717 7.55 24.9717 8.28229ZM24.6432 14.7364C24.8609 14.4942 25 14.1646 25 13.8014C25 13.0748 24.4467 12.4761 23.7777 12.4761H19.3944C19.0599 12.4761 18.7572 12.6203 18.5342 12.8624C18.3164 13.1046 18.1784 13.4333 18.1784 13.7965C18.1784 14.1829 18.3324 14.5346 18.5766 14.7768C18.7943 14.9901 19.0811 15.1227 19.3944 15.1227H23.783C24.1175 15.1227 24.4202 14.9786 24.6432 14.7364Z" fill="#313650"/>
</svg>
