<svg width="16" height="16" viewBox="0 0 16 16" fill="none" xmlns="http://www.w3.org/2000/svg">
<path d="M15.7778 8.49508C15.7778 7.47158 15.1665 6.58342 14.2579 6.08435C14.2579 6.06744 14.2664 6.04206 14.2664 6.02514C14.2664 2.82775 11.4814 0.222473 8.051 0.222473C4.62912 0.222473 1.83558 2.82775 1.83558 6.02514V6.0336C0.876091 6.51575 0.222282 7.43775 0.222282 8.48662C0.222282 10.043 1.63179 11.3034 3.37245 11.3034C3.68662 11.3034 3.94135 11.0496 3.94135 10.7366V6.23661C3.94135 5.92364 3.68662 5.66988 3.37245 5.66988C3.2366 5.66988 3.10923 5.67834 2.98186 5.69525C3.16867 3.26761 5.35935 1.34748 8.04251 1.34748C10.7257 1.34748 12.9333 3.27606 13.1032 5.71217C12.9418 5.68679 12.7805 5.67834 12.6192 5.67834C12.305 5.67834 12.0503 5.9321 12.0503 6.24507V10.7451C12.0503 11.0581 12.305 11.3118 12.6192 11.3118C12.7211 11.3118 12.823 11.3034 12.9249 11.2949C12.738 13.1727 11.0144 14.6446 8.92558 14.6446C8.7747 14.6446 8.63 14.7043 8.52331 14.8106C8.41662 14.9168 8.35668 15.061 8.35668 15.2113C8.35668 15.3616 8.41662 15.5058 8.52331 15.612C8.63 15.7183 8.7747 15.778 8.92558 15.778C11.7531 15.778 14.0542 13.6295 14.0711 10.9904C15.0901 10.5167 15.7778 9.5778 15.7778 8.49508ZM2.82054 10.1107C1.98842 9.90769 1.36857 9.25637 1.36857 8.48662C1.36857 7.71688 1.97992 7.07402 2.82054 6.86255V10.1107ZM13.1966 10.1107V6.87101C14.0372 7.07402 14.6485 7.72534 14.6485 8.49508C14.6485 9.26483 14.0372 9.90769 13.1966 10.1107Z" fill="#313650"/>
</svg>
