<svg width="19" height="26" viewBox="0 0 19 26" fill="none" xmlns="http://www.w3.org/2000/svg">
<path d="M18.4753 9.64925C18.4753 4.73445 14.4585 0.748779 9.5 0.748779C4.54303 0.748779 0.524658 4.73445 0.524658 9.64925C0.524658 11.2732 0.970122 12.7895 1.73503 14.1003H1.72544L9.49919 25.227L17.2761 14.1003H17.2657C18.0331 12.7895 18.4753 11.2732 18.4753 9.64925ZM9.50078 14.0986C7.02267 14.0986 5.01312 12.1066 5.01312 9.64847C5.01312 7.19192 7.02267 5.1983 9.50078 5.1983C11.9812 5.1983 13.9884 7.19192 13.9884 9.64847C13.9884 12.1066 11.9812 14.0986 9.50078 14.0986Z" fill="#444B59"/>
</svg>
