<svg width="16" height="16" viewBox="0 0 16 16" fill="none" xmlns="http://www.w3.org/2000/svg">
<path d="M8 15.5001C3.79492 15.5001 0.375 12.0801 0.375 7.87506C0.375 5.19733 1.76172 2.76178 4.08203 1.36334C4.42773 1.15631 4.88086 1.26569 5.08984 1.61334C5.29883 1.961 5.18945 2.41217 4.83984 2.62311C2.96289 3.75397 1.84375 5.71881 1.84375 7.87701C1.84375 11.2696 4.60547 14.0313 7.99805 14.0313C11.3906 14.0313 14.1523 11.2696 14.1523 7.87701C14.1523 5.71881 13.0332 3.75397 11.1562 2.62311C10.8086 2.41412 10.6973 1.96295 10.9043 1.61334C11.1172 1.26569 11.5684 1.15631 11.9141 1.36334C14.2344 2.76178 15.6211 5.19733 15.6211 7.87506C15.625 12.0801 12.2051 15.5001 8 15.5001Z" fill="#313650"/>
<path d="M8 8.23248C7.59375 8.23248 7.26563 7.90436 7.26563 7.49811V1.23444C7.26563 0.828186 7.59375 0.500061 8 0.500061C8.40625 0.500061 8.73438 0.828186 8.73438 1.23444V7.49616C8.73633 7.90241 8.40625 8.23248 8 8.23248Z" fill="#313650"/>
</svg>
