<svg width="12" height="12" viewBox="0 0 12 12" fill="none" xmlns="http://www.w3.org/2000/svg">
<path d="M6.6 10.05V11.25H5.4V10.05H6.6ZM4.275 7.725V11.25H0.75V7.725H4.275ZM11.25 7.725V11.25H7.725V7.725H11.25ZM3.525 8.47425H1.5V10.4992H3.525V8.47425ZM10.4992 8.47425H8.47425V10.4992H10.4992V8.47425ZM6.6 7.725V8.925H5.4V7.725H6.6ZM6.6 0.75V6.6H0.75V0.75H6.6ZM8.925 5.4V6.6H7.725V5.4H8.925ZM11.25 5.4V6.6H10.05V5.4H11.25ZM5.85 1.5H1.5V5.85H5.85V1.5ZM11.25 0.75V4.275H7.725V0.75H11.25ZM4.275 3.075V4.275H3.075V3.075H4.275ZM10.4992 1.5H8.47425V3.525H10.4992V1.5Z" fill="#999DA6"/>
</svg>
