<svg width="16" height="19" viewBox="0 0 16 19" fill="none" xmlns="http://www.w3.org/2000/svg">
<path fill-rule="evenodd" clip-rule="evenodd" d="M2.33304 5.33028C2.33304 2.65983 4.49592 0.496948 7.16637 0.496948C9.83682 0.496948 11.9997 2.65983 11.9997 5.33028C11.9997 8.00073 9.83682 10.1636 7.16637 10.1636C4.49592 10.1636 2.33304 8.00073 2.33304 5.33028ZM7.16637 1.82986C6.238 1.82986 5.34766 2.19866 4.6912 2.85511C4.03475 3.51157 3.66595 4.40191 3.66595 5.33028C3.66595 6.25865 4.03475 7.14899 4.6912 7.80545C5.34766 8.46191 6.238 8.8307 7.16637 8.8307C8.09474 8.8307 8.98508 8.46191 9.64154 7.80545C10.298 7.14899 10.6668 6.25865 10.6668 5.33028C10.6668 4.40191 10.298 3.51157 9.64154 2.85511C8.98508 2.19866 8.09474 1.82986 7.16637 1.82986Z" fill="#313650"/>
<path fill-rule="evenodd" clip-rule="evenodd" d="M9.45773 14.9741C9.47688 15.0758 9.50375 15.1756 9.53977 15.2716L9.32276 15.3901C8.99841 15.5671 8.88346 15.9765 9.06825 16.2965C9.24997 16.6112 9.65243 16.7189 9.96706 16.5371L10.1869 16.41L10.2772 16.4955C10.5901 16.7917 10.9684 17.0101 11.3814 17.133L11.5005 17.1685V17.4134C11.5005 17.7815 11.7989 18.0799 12.167 18.0799C12.5351 18.0799 12.8335 17.7815 12.8335 17.4134V17.1685L12.9526 17.133C13.3656 17.0101 13.7438 16.7917 14.0568 16.4955L14.1471 16.41L14.3593 16.5326C14.6781 16.7169 15.086 16.6077 15.2702 16.2888C15.4543 15.9699 15.345 15.5621 15.026 15.378L14.813 15.2551L14.8417 15.1343C14.9412 14.7154 14.9412 14.279 14.8417 13.86L14.813 13.7392L15.026 13.6163C15.345 13.4322 15.4543 13.0244 15.2702 12.7055C15.086 12.3866 14.6781 12.2774 14.3593 12.4617L14.1471 12.5843L14.0568 12.4988C13.7479 12.2064 13.3708 11.985 12.9528 11.8614L12.8335 11.826V11.5797C12.8335 11.2116 12.5351 10.9132 12.167 10.9132C11.7989 10.9132 11.5005 11.2116 11.5005 11.5797V11.8258L11.3814 11.8613C10.9684 11.9842 10.5901 12.2026 10.2772 12.4988L10.1869 12.5843L9.97495 12.4618C9.65596 12.2775 9.24793 12.3867 9.06369 12.7057C8.87953 13.0246 8.98869 13.4324 9.30753 13.6167L9.51971 13.7393L9.49102 13.8601C9.48891 13.8689 9.48684 13.8778 9.48482 13.8867C9.43425 14.1445 9.40422 14.4385 9.42598 14.7288C9.43288 14.8109 9.44346 14.8927 9.45773 14.9741ZM12.1664 13.0799C11.7906 13.0799 11.4303 13.2291 11.1646 13.4948C10.899 13.7605 10.7497 14.1208 10.7497 14.4965C10.7497 14.8723 10.899 15.2326 11.1646 15.4983C11.4303 15.7639 11.7906 15.9132 12.1664 15.9132C12.5421 15.9132 12.9024 15.7639 13.1681 15.4983C13.4338 15.2326 13.583 14.8723 13.583 14.4965C13.583 14.1208 13.4338 13.7605 13.1681 13.4948C12.9024 13.2291 12.5421 13.0799 12.1664 13.0799Z" fill="#313650"/>
<path d="M2.57047 13.2344C3.60016 12.2047 4.93977 11.5562 6.37006 11.3796C6.72204 11.3362 7.02299 11.6088 7.05281 11.9622C7.0836 12.3394 6.79117 12.6623 6.41773 12.7239C5.33628 12.9024 4.27936 13.4105 3.51298 14.1769C2.73728 14.9526 2.2337 15.9496 2.0637 17.0195C2.00706 17.3759 1.71584 17.6636 1.35494 17.6636C0.978937 17.6636 0.673438 17.3527 0.722621 16.98C0.908654 15.57 1.55375 14.2511 2.57047 13.2344Z" fill="#313650"/>
</svg>
