<svg width="17" height="18" viewBox="0 0 17 18" fill="none" xmlns="http://www.w3.org/2000/svg">
<path fill-rule="evenodd" clip-rule="evenodd" d="M14.8333 17.0013L0.666669 2.83466L1.84518 1.65614L16.0118 15.8228L14.8333 17.0013Z" fill="white"/>
<path d="M16.1765 14.2591C16.4137 14.1308 16.5757 13.8795 16.5757 13.5922C16.5757 13.1756 16.2348 12.8347 15.8182 12.8347H15.4394V7.15284C15.4394 3.40284 12.3712 0.334656 8.6212 0.334656C6.85978 0.334656 5.24879 1.01159 4.03553 2.11814L16.1765 14.2591Z" fill="white"/>
<path fill-rule="evenodd" clip-rule="evenodd" d="M3.1074 3.1542C2.28777 4.27945 1.80302 5.66228 1.80302 7.15284V12.8347H1.42423C1.00757 12.8347 0.666656 13.1756 0.666656 13.5922C0.666656 14.0089 1.00757 14.3498 1.42423 14.3498H5.28787C5.62878 15.865 6.99241 17.0013 8.6212 17.0013C10.25 17.0013 11.6136 15.865 11.9545 14.3498H14.303L3.1074 3.1542ZM6.87878 14.3498C7.18181 15.0316 7.86363 15.4862 8.6212 15.4862C9.37878 15.4862 10.0606 15.0316 10.3636 14.3498H6.87878Z" fill="white"/>
</svg>
