<svg width="10" height="10" viewBox="0 0 10 10" fill="none" xmlns="http://www.w3.org/2000/svg">
<path fill-rule="evenodd" clip-rule="evenodd" d="M8.50001 10L7.689e-06 1.5L0.707114 0.792893L9.20712 9.29289L8.50001 10Z" fill="#D3D7DF"/>
<path d="M9.30591 8.35467C9.44823 8.27766 9.54545 8.12691 9.54545 7.95455C9.54545 7.70455 9.34091 7.5 9.09091 7.5H8.86364V4.09091C8.86364 1.84091 7.02273 0 4.77273 0C3.71587 0 2.74928 0.406159 2.02133 1.07009L9.30591 8.35467Z" fill="#D3D7DF"/>
<path fill-rule="evenodd" clip-rule="evenodd" d="M1.46445 1.69172C0.972666 2.36688 0.681818 3.19658 0.681818 4.09091V7.5H0.454545C0.204545 7.5 0 7.70455 0 7.95455C0 8.20455 0.204545 8.40909 0.454545 8.40909H2.77273C2.97727 9.31818 3.79545 10 4.77273 10C5.75 10 6.56818 9.31818 6.77273 8.40909H8.18181L1.46445 1.69172ZM3.72727 8.40909C3.90909 8.81818 4.31818 9.09091 4.77273 9.09091C5.22727 9.09091 5.63636 8.81818 5.81818 8.40909H3.72727Z" fill="#D3D7DF"/>
</svg>
