<svg width="25" height="22" viewBox="0 0 25 22" fill="none" xmlns="http://www.w3.org/2000/svg">
<path d="M22.6555 0.87793H2.23794C1.13052 0.87793 0.247314 1.55879 0.247314 2.39824V19.5309C0.247314 20.4032 1.15786 21.1141 2.27075 21.1141H22.8114C23.7821 21.2071 24.6489 20.5016 24.7528 19.5309V2.39824C24.7528 1.55879 23.8094 0.87793 22.6446 0.87793H22.6555ZM8.31372 4.43809C9.42661 4.43535 10.3344 5.33496 10.3372 6.44785C10.3399 7.56074 9.44028 8.46856 8.32739 8.47129C7.2145 8.47402 6.30669 7.57441 6.30396 6.46152V6.45606C6.30396 5.34316 7.20357 4.44355 8.31372 4.43809ZM20.8098 17.667H4.22856C3.58599 17.667 3.45747 17.2951 3.8895 16.8521L7.44692 13.1088C7.90357 12.6576 8.6145 12.5893 9.14771 12.9475L11.7672 14.7959C12.2922 15.1596 13.0059 15.0639 13.4188 14.5771L19.4864 7.22441C19.8856 6.74316 20.2821 6.85254 20.3723 7.45684L21.0655 12.0232L21.7586 16.5896C21.8379 17.101 21.4852 17.5795 20.9739 17.6588C20.9219 17.667 20.8645 17.6697 20.8098 17.667Z" fill="#444B59"/>
</svg>
