<svg width="20" height="24" viewBox="0 0 20 24" fill="none" xmlns="http://www.w3.org/2000/svg">
<path d="M19.3333 7.26798V21.3333C19.3333 21.6397 19.273 21.9431 19.1557 22.2262C19.0384 22.5093 18.8666 22.7666 18.6499 22.9832C18.4332 23.1999 18.176 23.3718 17.8929 23.489C17.6098 23.6063 17.3064 23.6666 17 23.6666H2.99999C2.69357 23.6666 2.39016 23.6063 2.10706 23.489C1.82397 23.3718 1.56675 23.1999 1.35008 22.9832C1.13341 22.7666 0.961535 22.5093 0.844274 22.2262C0.727013 21.9431 0.66666 21.6397 0.66666 21.3333V7.26856C2.64223 9.04015 5.08205 10.2116 7.6999 10.6455C7.79254 11.1883 8.0742 11.6808 8.49504 12.0359C8.91588 12.391 9.44877 12.5858 9.9994 12.5858C10.55 12.5858 11.0829 12.391 11.5038 12.0359C11.9246 11.6808 12.2063 11.1883 12.2989 10.6455C14.9175 10.2118 17.358 9.04016 19.3339 7.26798H19.3333ZM17 0.333313C17.3064 0.333313 17.6098 0.393666 17.8929 0.510927C18.176 0.628188 18.4332 0.80006 18.6499 1.01673C18.8666 1.2334 19.0384 1.49063 19.1557 1.77372C19.273 2.05681 19.3333 2.36023 19.3333 2.66665L19.3339 5.64106C17.434 7.65788 14.9314 9.00426 12.2015 9.47823C12.0414 9.02185 11.7435 8.62647 11.349 8.34675C10.9544 8.06703 10.4827 7.91678 9.99911 7.91678C9.51547 7.91678 9.04378 8.06703 8.64924 8.34675C8.25471 8.62647 7.95681 9.02185 7.79674 9.47823C5.06741 9.00403 2.56541 7.65765 0.666077 5.64106L0.66666 2.66665C0.66666 2.36023 0.727013 2.05681 0.844274 1.77372C0.961535 1.49063 1.13341 1.2334 1.35008 1.01673C1.56675 0.80006 1.82397 0.628188 2.10706 0.510927C2.39016 0.393666 2.69357 0.333313 2.99999 0.333313H17Z" fill="#444B59"/>
</svg>
