<svg width="19" height="18" viewBox="0 0 19 18" fill="none" xmlns="http://www.w3.org/2000/svg">
<path d="M14.2051 12.9517L18.0013 16.7466L16.7479 18L12.953 14.2051C11.7795 15.1414 10.3655 15.7275 8.87373 15.8961C7.38195 16.0646 5.87287 15.8089 4.51995 15.1582C3.16702 14.5075 2.02516 13.4882 1.22559 12.2176C0.426033 10.9469 0.00122602 9.47646 0 7.97519C0 3.57156 3.57288 0 7.97519 0C9.47634 0.00117533 10.9467 0.425864 12.2173 1.22526C13.4879 2.02466 14.5072 3.16632 15.158 4.51906C15.8088 5.8718 16.0648 7.38071 15.8965 8.8724C15.7282 10.3641 15.1424 11.778 14.2065 12.9517H14.2051ZM12.428 12.2938C13.2782 11.4194 13.8516 10.3137 14.0766 9.11503C14.3016 7.91638 14.1681 6.67801 13.6928 5.55485C13.2176 4.43168 12.4216 3.47361 11.4047 2.80049C10.3877 2.12737 9.19476 1.76909 7.97519 1.77049C7.16056 1.77032 6.35389 1.93066 5.60126 2.24237C4.84863 2.55407 4.16479 3.01102 3.58883 3.58711C3.01286 4.16319 2.55606 4.84713 2.24451 5.59983C1.93297 6.35252 1.7728 7.15923 1.77315 7.97386C1.77201 9.19316 2.13037 10.3857 2.80343 11.4025C3.47648 12.4192 4.43435 13.2149 5.55725 13.6901C6.68014 14.1653 7.91822 14.2989 9.11663 14.0742C10.3151 13.8495 11.4206 13.2764 12.2951 12.4267L12.428 12.2938Z" fill="#313650"/>
</svg>
