<svg width="16" height="16" viewBox="0 0 16 16" fill="none" xmlns="http://www.w3.org/2000/svg">
<path d="M7.99892 10.3019C8.60913 10.301 9.1941 10.0582 9.62569 9.62686C10.0573 9.19549 10.3003 8.61063 10.3015 8.00042C10.3015 6.73232 9.26932 5.69897 8.00122 5.69897C7.39101 5.69988 6.80603 5.94261 6.37444 6.37399C5.94285 6.80536 5.69983 7.39021 5.69861 8.00042C5.69861 9.26853 6.73081 10.3019 7.99892 10.3019ZM7.99892 11.4526C7.08373 11.4517 6.2063 11.0877 5.55927 10.4404C4.91224 9.79316 4.54849 8.91562 4.54788 8.00042C4.54788 6.09712 6.09676 4.54824 8.00122 4.54824C8.91641 4.54915 9.79383 4.91319 10.4409 5.56044C11.0879 6.20768 11.4516 7.08523 11.4523 8.00042C11.4523 9.90373 9.90337 11.4526 7.99892 11.4526Z" fill="#313650"/>
<path d="M12.1956 13.0625C12.0322 12.2328 12.0402 11.2512 12.4372 10.5666C12.84 9.86461 13.7007 9.3675 14.5235 9.09017C14.5616 8.83304 14.5916 8.57476 14.6133 8.31573C14.6225 8.19605 14.6271 8.08904 14.6271 7.99928C14.6271 7.90837 14.6225 7.80135 14.6133 7.67938C14.5942 7.42123 14.5642 7.16401 14.5235 6.90839C13.6904 6.62301 12.8423 6.13395 12.4384 5.4343C12.0425 4.74962 12.0356 3.78071 12.1956 2.94298L10.2854 1.83137C9.64095 2.39063 8.79517 2.87163 7.99886 2.87163C7.20946 2.87163 6.37288 2.39868 5.72042 1.83598L3.8033 2.93722C3.96671 3.7669 3.95865 4.74847 3.56165 5.43315C3.1589 6.1351 2.29815 6.63221 1.47538 6.90954C1.43726 7.16667 1.40732 7.42495 1.38562 7.68398C1.37727 7.78927 1.37266 7.89482 1.37181 8.00043C1.37181 8.09134 1.37642 8.19836 1.38562 8.32033C1.4047 8.57848 1.43464 8.8357 1.47538 9.09132C2.30851 9.3767 3.1566 9.86576 3.5605 10.5654C3.95635 11.2501 3.96326 12.219 3.8033 13.0567L5.71352 14.1683C6.35792 13.6091 7.20371 13.1281 8.00001 13.1281C8.79171 13.1281 9.63175 13.6045 10.2796 14.1637L12.1944 13.0613L12.1956 13.0625ZM10.2635 15.3708C10.0353 15.3719 9.81457 15.2892 9.64325 15.1384C9.4016 14.9163 8.58343 14.28 8.00116 14.28C7.41429 14.28 6.59727 14.9163 6.35907 15.1384C6.22915 15.2538 6.0694 15.3303 5.89807 15.3592C5.72674 15.3881 5.55073 15.3682 5.39016 15.3018L5.34298 15.2788L2.98399 13.9117C2.84771 13.8047 2.74375 13.6621 2.68362 13.4996C2.6235 13.3371 2.60957 13.1611 2.64337 12.9911C2.71472 12.6735 2.85626 11.6459 2.56512 11.1419C2.27514 10.6379 1.31313 10.2478 1.00013 10.1477C0.839984 10.093 0.696968 9.99722 0.585322 9.87003C0.473675 9.74284 0.397292 9.58862 0.363776 9.42273C0.358023 9.38821 0.222237 8.58845 0.222237 8.00158C0.222237 7.41471 0.358023 6.61725 0.363776 6.58158C0.397395 6.41556 0.473951 6.26125 0.58581 6.13405C0.697668 6.00685 0.84092 5.91119 1.00128 5.85662C1.31313 5.75881 2.27514 5.36871 2.56627 4.86124C2.85856 4.35492 2.71817 3.33077 2.64337 3.01202C2.60862 2.84208 2.62211 2.6658 2.6823 2.50312C2.74249 2.34044 2.84699 2.19784 2.98399 2.09144L3.02771 2.06152L5.38671 0.699055C5.54743 0.632448 5.72366 0.612449 5.89522 0.641348C6.06678 0.670247 6.22674 0.746875 6.35677 0.862459C6.59842 1.08455 7.41659 1.7209 7.99886 1.7209C8.58573 1.7209 9.40275 1.08455 9.64095 0.862459C9.77088 0.747095 9.93063 0.670597 10.102 0.641703C10.2733 0.612809 10.4493 0.632683 10.6099 0.699055L10.657 0.72207L13.016 2.08914C13.1523 2.19614 13.2563 2.33881 13.3164 2.50131C13.3765 2.66381 13.3905 2.83978 13.3567 3.00972C13.2853 3.32732 13.1438 4.35492 13.4349 4.85894C13.7249 5.36296 14.6869 5.75306 14.9999 5.85317C15.16 5.90791 15.3031 6.00364 15.4147 6.13083C15.5264 6.25802 15.6027 6.41224 15.6362 6.57813C15.642 6.61265 15.7778 7.41241 15.7778 7.99928C15.7778 8.58615 15.642 9.38361 15.6362 9.41928C15.6026 9.5853 15.5261 9.7396 15.4142 9.86681C15.3024 9.99401 15.1591 10.0897 14.9987 10.1442C14.6869 10.2421 13.7249 10.6321 13.4338 11.1396C13.1415 11.6459 13.2819 12.6701 13.3567 12.9888C13.3911 13.1588 13.3775 13.335 13.3173 13.4976C13.2572 13.6602 13.1528 13.8028 13.016 13.9094L12.9723 13.9393L10.6133 15.3018C10.5022 15.3468 10.3834 15.3703 10.2635 15.3708Z" fill="#313650"/>
</svg>
