<svg width="16" height="14" viewBox="0 0 16 14" fill="none" xmlns="http://www.w3.org/2000/svg">
<path d="M2.49233 0.000274658C2.36221 0.000351253 2.23515 0.0363783 2.12787 0.103619C2.02059 0.170861 1.93811 0.266168 1.89126 0.377013L0.802188 3.85732C0.593925 4.34798 0.554898 4.88504 0.690338 5.39653C0.825778 5.90801 1.12921 6.36948 1.55998 6.71908C1.55671 6.74311 1.55505 6.76731 1.55502 6.79153V13.4116C1.55502 13.7358 1.84464 14.0003 2.19973 14.0003H13.7996C13.9706 14.0003 14.1346 13.9383 14.2555 13.8279C14.3764 13.7175 14.4444 13.5677 14.4444 13.4116V6.79153C14.4444 6.76701 14.4428 6.7425 14.4394 6.71817C14.8703 6.36868 15.174 5.90727 15.3096 5.39577C15.4452 4.88428 15.4063 4.34716 15.1982 3.85641L14.1091 0.378824C14.0624 0.26781 13.98 0.172309 13.8727 0.104898C13.7654 0.0374874 13.6383 0.00132732 13.508 0.00118021L2.49233 0.000274658ZM13.1549 7.31951V12.8212H2.84544V7.31951C3.35445 7.42249 3.88474 7.39495 4.37767 7.23992C4.87061 7.08489 5.30698 6.80841 5.63854 6.44105C5.90283 6.73475 6.2352 6.97124 6.61168 7.13348C6.98816 7.29573 7.39939 7.37968 7.8157 7.37928H8.18467C9.06149 7.37928 9.84407 7.01431 10.3608 6.44196C10.6928 6.80963 11.1297 7.08622 11.6232 7.24111C12.1167 7.396 12.6476 7.42313 13.1569 7.31951H13.1549ZM7.81471 6.20197C6.96963 6.20197 6.28425 5.57709 6.28425 4.8046C6.28425 4.64848 6.21633 4.49875 6.09542 4.38835C5.97451 4.27796 5.81053 4.21594 5.63954 4.21594C5.46855 4.21594 5.30456 4.27796 5.18365 4.38835C5.06275 4.49875 4.99482 4.64848 4.99482 4.8046C4.99482 5.57437 4.30547 6.20197 3.45742 6.20197C2.36637 6.20197 1.61552 5.20216 2.00533 4.28115L2.93471 1.17758H13.0657L13.995 4.27934C14.3848 5.20126 13.633 6.20197 12.541 6.20197C11.6929 6.20197 11.0036 5.57347 11.0036 4.8046C11.0036 4.64848 10.9356 4.49875 10.8147 4.38835C10.6938 4.27796 10.5298 4.21594 10.3589 4.21594C10.1879 4.21594 10.0239 4.27796 9.90297 4.38835C9.78206 4.49875 9.71414 4.64848 9.71414 4.8046C9.71414 5.57619 9.02975 6.20197 8.18368 6.20197H7.81471Z" fill="#313650"/>
</svg>
