<svg width="18" height="17" viewBox="0 0 18 17" fill="none" xmlns="http://www.w3.org/2000/svg">
<path d="M17.1192 6.01132L11.6575 0.549659C11.5892 0.481251 11.5079 0.427038 11.4186 0.390139C11.3292 0.35324 11.2334 0.334385 11.1367 0.334659C11.04 0.334385 10.9442 0.35324 10.8548 0.390139C10.7654 0.427038 10.6842 0.481251 10.6158 0.549659L7.045 4.12299C6.77414 4.09247 6.50175 4.07745 6.22917 4.07799C4.56565 4.07547 2.9511 4.6408 1.6525 5.68049C1.57183 5.74526 1.50571 5.8263 1.45844 5.91833C1.41118 6.01035 1.38382 6.1113 1.37816 6.2146C1.3725 6.3179 1.38866 6.42124 1.42559 6.51788C1.46252 6.61452 1.51939 6.70229 1.5925 6.77549L5.62 10.803L0.845004 15.573C0.786708 15.631 0.750713 15.7077 0.743338 15.7897L0.668338 16.6147C0.663812 16.6636 0.669567 16.713 0.685233 16.7597C0.700899 16.8063 0.726132 16.8492 0.759315 16.8855C0.792497 16.9218 0.832899 16.9508 0.877933 16.9706C0.922967 16.9904 0.971641 17.0006 1.02084 17.0005C1.03167 17.0005 1.0425 17.0005 1.05417 16.998L1.87917 16.923C1.96121 16.9154 2.03793 16.8791 2.09584 16.8205L6.87 12.0463L10.8975 16.0738C10.9659 16.1422 11.0471 16.1964 11.1364 16.2333C11.2258 16.2702 11.3216 16.2891 11.4183 16.2888C11.5286 16.2891 11.6374 16.2645 11.7368 16.2169C11.8362 16.1693 11.9236 16.0999 11.9925 16.0138C12.5941 15.2612 13.0412 14.3972 13.3082 13.4714C13.5752 12.5456 13.6568 11.5762 13.5483 10.6188L17.1192 7.04799C17.2564 6.91037 17.3334 6.72398 17.3334 6.52966C17.3334 6.33534 17.2564 6.14894 17.1192 6.01132Z" fill="white"/>
</svg>
