<svg width="18" height="18" viewBox="0 0 18 18" fill="none" xmlns="http://www.w3.org/2000/svg">
<path d="M17.1191 6.34336L11.6575 0.88169C11.5891 0.813282 11.5079 0.759069 11.4185 0.72217C11.3291 0.685272 11.2333 0.666416 11.1366 0.66669C11.0399 0.666416 10.9441 0.685272 10.8547 0.72217C10.7654 0.759069 10.6842 0.813282 10.6158 0.88169L7.35734 4.14244L13.857 10.6421L17.1191 7.38002C17.2563 7.24241 17.3334 7.05601 17.3334 6.86169C17.3334 6.66737 17.2563 6.48097 17.1191 6.34336Z" fill="white"/>
<path d="M4.12348 2.08921L15.9086 13.8743L15.3193 14.4636L13.5383 12.6826C13.4911 13.0608 13.4143 13.4355 13.3082 13.8034C13.0412 14.7292 12.5941 15.5932 11.9925 16.3459C11.9236 16.4319 11.8362 16.5013 11.7368 16.5489C11.6374 16.5965 11.5285 16.6211 11.4183 16.6209C11.3216 16.6211 11.2258 16.6023 11.1364 16.5654C11.047 16.5285 10.9658 16.4743 10.8975 16.4059L6.86997 12.3784L2.09581 17.1525C2.0379 17.2111 1.96118 17.2474 1.87914 17.255L1.05414 17.33C1.04247 17.3325 1.03164 17.3325 1.02081 17.3325C0.971611 17.3326 0.922937 17.3224 0.877903 17.3026C0.832869 17.2828 0.792467 17.2538 0.759284 17.2175C0.726101 17.1812 0.700869 17.1383 0.685203 17.0917C0.669536 17.0451 0.663782 16.9957 0.668307 16.9467L0.743307 16.1217C0.750683 16.0398 0.786677 15.9631 0.844974 15.905L5.61997 11.135L1.59247 7.10752C1.51936 7.03432 1.46249 6.94655 1.42556 6.84991C1.38863 6.75327 1.37247 6.64993 1.37813 6.54663C1.38379 6.44333 1.41115 6.34238 1.45841 6.25036C1.50568 6.15833 1.5718 6.0773 1.65247 6.01252C2.71306 5.16339 3.9844 4.63066 5.32105 4.46529L3.53423 2.67847L4.12348 2.08921Z" fill="white"/>
</svg>
