<svg width="16" height="16" viewBox="0 0 16 16" fill="none" xmlns="http://www.w3.org/2000/svg">
<path d="M3.88306 15.6941L6.36897 14.1851C11.2871 15.1861 15.6553 11.6751 15.6553 7.28819C15.6553 3.39211 12.2213 0.222504 8.00005 0.222504C3.77884 0.222504 0.344776 3.39133 0.344776 7.28741C0.344776 9.35329 1.30771 11.2854 2.99635 12.631V15.1947C2.99615 15.2714 3.0111 15.3473 3.04034 15.4182C3.06958 15.489 3.11255 15.5534 3.16676 15.6077C3.22097 15.6619 3.28536 15.7048 3.35623 15.7341C3.4271 15.7633 3.50305 15.7783 3.57972 15.7781C3.68472 15.7781 3.78973 15.7501 3.88306 15.6941ZM14.4886 7.28741C14.4886 11.0124 10.6851 13.9867 6.39697 12.9974C6.32363 12.9798 6.24754 12.9768 6.17306 12.9887C6.09858 13.0006 6.02718 13.0271 5.96295 13.0666L4.16386 14.1586V12.3432C4.16392 12.2517 4.14241 12.1615 4.10105 12.0798C4.05969 11.9982 3.99967 11.9275 3.92584 11.8734C2.39199 10.7456 1.5115 9.07406 1.5115 7.28741C1.5115 4.03458 4.42209 1.38845 8.00005 1.38845C11.578 1.38845 14.4886 4.03536 14.4886 7.28741Z" fill="#313650"/>
<path d="M4.88897 5.86679C4.88897 5.54125 5.15287 5.27734 5.47842 5.27734H10.6909C11.0165 5.27734 11.2804 5.54125 11.2804 5.86679C11.2804 6.19234 11.0165 6.45624 10.6909 6.45624H5.47842C5.15287 6.45624 4.88897 6.19234 4.88897 5.86679Z" fill="#313650"/>
<path d="M11.2804 8.25901C11.2804 7.93347 11.0165 7.66956 10.6909 7.66956H5.47842C5.15287 7.66956 4.88897 7.93347 4.88897 8.25901C4.88897 8.58456 5.15287 8.84846 5.47842 8.84846H10.6909C11.0165 8.84846 11.2804 8.58456 11.2804 8.25901Z" fill="#313650"/>
</svg>
