<svg width="16" height="16" viewBox="0 0 16 16" fill="none" xmlns="http://www.w3.org/2000/svg">
<g clip-path="url(#clip0_10095_54525)">
<path d="M15.1998 4.79995C15.1998 4.35812 14.8416 3.99995 14.3998 3.99995H1.5998C1.15798 3.99995 0.799805 4.35812 0.799805 4.79995C0.799805 5.24177 1.15798 5.59995 1.5998 5.59995H14.3998C14.8416 5.59995 15.1998 5.24177 15.1998 4.79995Z" fill="#202331"/>
<path d="M3.9998 5.59995H2.39978V13.3132C2.39978 15.3925 4.04108 15.1949 6.12042 15.1949H9.88394C11.9633 15.1949 13.5998 15.3925 13.5998 13.3132V5.59995H11.9998V13.5971C9.69907 13.5971 5.71132 13.5797 3.9998 13.5999V5.59995ZM3.9998 13.5999V5.59995H2.39978V13.3132C2.39978 15.3925 4.04108 15.1949 6.12042 15.1949H9.88394C11.9633 15.1949 13.5998 15.3925 13.5998 13.3132V5.59995H11.9998V13.5971C9.69907 13.5971 5.71132 13.5797 3.9998 13.5999Z" fill="#202331"/>
<path d="M10.845 1.59995C10.845 1.15812 10.4868 0.799946 10.045 0.799946H5.99974C5.55791 0.799946 5.19974 1.15812 5.19974 1.59995C5.19974 2.04177 5.55791 2.39995 5.99973 2.39995H10.045C10.4868 2.39995 10.845 2.04177 10.845 1.59995ZM10.3998 7.99995C10.3998 7.55812 10.0416 7.19995 9.5998 7.19995C9.15798 7.19995 8.7998 7.55812 8.7998 7.99995V11.1999C8.7998 11.6418 9.15798 11.9999 9.5998 11.9999C10.0416 11.9999 10.3998 11.6418 10.3998 11.1999V7.99995ZM7.1998 7.99995C7.1998 7.55812 6.84163 7.19995 6.3998 7.19995C5.95798 7.19995 5.5998 7.55812 5.5998 7.99995V11.1999C5.5998 11.6418 5.95798 11.9999 6.3998 11.9999C6.84163 11.9999 7.1998 11.6418 7.1998 11.1999V7.99995Z" fill="#202331"/>
</g>
<defs>
<clipPath id="clip0_10095_54525">
<rect width="16" height="16" fill="white" transform="matrix(1 0 0 -1 0 16)"/>
</clipPath>
</defs>
</svg>
