<svg width="16" height="14" viewBox="0 0 16 14" fill="none" xmlns="http://www.w3.org/2000/svg">
<path d="M15.6 2.94H5.2C5 2.94 4.8 2.78 4.8 2.54V1.74C4.8 1.54 4.96 1.34 5.2 1.34H15.6C15.8 1.34 16 1.5 16 1.74V2.54C16 2.78 15.84 2.94 15.6 2.94ZM15.6 7.74H5.2C5 7.74 4.8 7.58 4.8 7.34V6.54C4.8 6.34 4.96 6.14 5.2 6.14H15.6C15.8 6.14 16 6.3 16 6.54V7.34C16 7.58 15.84 7.74 15.6 7.74ZM15.6 12.54H5.2C5 12.54 4.8 12.38 4.8 12.14V11.34C4.8 11.14 4.96 10.94 5.2 10.94H15.6C15.8 10.94 16 11.1 16 11.34V12.14C16 12.38 15.84 12.54 15.6 12.54ZM2.4 5.34H0.8C0.36 5.34 0 5.7 0 6.14V7.74C0 8.18 0.36 8.54 0.8 8.54H2.4C2.84 8.54 3.2 8.18 3.2 7.74V6.14C3.2 5.7 2.84 5.34 2.4 5.34ZM2.4 7.74H0.8V6.14H2.4V7.74ZM2.4 10.14H0.8C0.36 10.14 0 10.5 0 10.94V12.54C0 12.98 0.36 13.34 0.8 13.34H2.4C2.84 13.34 3.2 12.98 3.2 12.54V10.94C3.2 10.5 2.84 10.14 2.4 10.14ZM2.4 12.54H0.8V10.94H2.4V12.54ZM1.36 3.62L0.0675851 2.55221C-0.0124149 2.47221 -0.0124149 2.35221 0.0275851 2.27221L0.351082 1.88458C0.431082 1.80458 0.551082 1.80458 0.631082 1.84458L1.45804 2.48974L3.29375 0.659335C3.37375 0.579335 3.49375 0.579335 3.57375 0.659335L3.9218 1.00829C4.0018 1.08829 4.0018 1.20829 3.9218 1.28829L1.64 3.62C1.55938 3.70308 1.45804 3.69371 1.36 3.62Z" fill="#202331"/>
</svg>
