<svg width="16" height="16" viewBox="0 0 16 16" fill="none" xmlns="http://www.w3.org/2000/svg">
<path d="M12.3838 11.4698C12.2035 11.4698 12.0307 11.3986 11.9032 11.2718C11.7758 11.145 11.7042 10.9731 11.7042 10.7938C11.7042 10.6145 11.7758 10.4426 11.9032 10.3158C12.0307 10.1891 12.2035 10.1178 12.3838 10.1178C12.5581 10.1178 12.7252 10.049 12.8484 9.92638C12.9717 9.8038 13.0409 9.63755 13.0409 9.46419V3.60561C13.0409 3.43226 12.9717 3.266 12.8484 3.14342C12.7252 3.02084 12.5581 2.95198 12.3838 2.95198H6.49393C6.31964 2.95198 6.1525 3.02084 6.02927 3.14342C5.90603 3.266 5.8368 3.43226 5.8368 3.60561C5.8368 3.7849 5.7652 3.95684 5.63775 4.08361C5.5103 4.21038 5.33744 4.2816 5.1572 4.2816C4.97696 4.2816 4.8041 4.21038 4.67665 4.08361C4.5492 3.95684 4.4776 3.7849 4.4776 3.60561C4.47879 3.07406 4.69161 2.5646 5.06948 2.18873C5.44736 1.81286 5.95953 1.60118 6.49393 1.6H12.3838C12.9182 1.60118 13.4303 1.81286 13.8082 2.18873C14.1861 2.5646 14.3989 3.07406 14.4001 3.60561V9.46419C14.3989 9.99575 14.1861 10.5052 13.8082 10.8811C13.4303 11.2569 12.9182 11.4686 12.3838 11.4698Z" fill="#202331"/>
<path d="M9.37053 14.4H3.72969C3.44993 14.4003 3.17284 14.3458 2.91431 14.2395C2.65578 14.1331 2.42087 13.9771 2.22305 13.7804C2.02523 13.5836 1.86838 13.3499 1.76148 13.0928C1.65459 12.8356 1.59975 12.56 1.6001 12.2817V6.64846C1.59963 6.37011 1.65438 6.09441 1.76122 5.83714C1.86807 5.57988 2.0249 5.34611 2.22273 5.14925C2.42056 4.95238 2.65551 4.79628 2.9141 4.6899C3.17269 4.58351 3.44985 4.52894 3.72969 4.52929H9.37053C9.65029 4.52894 9.92737 4.58349 10.1859 4.68981C10.4444 4.79614 10.6793 4.95216 10.8772 5.14893C11.075 5.3457 11.2318 5.57936 11.3387 5.83652C11.4456 6.09368 11.5005 6.36929 11.5001 6.64757V12.2808C11.5226 13.4531 10.549 14.4 9.37053 14.4ZM3.72969 5.88127C3.62828 5.88043 3.52773 5.89969 3.43388 5.9379C3.34004 5.97612 3.25477 6.03253 3.18307 6.10385C3.11136 6.17518 3.05465 6.25999 3.01623 6.35334C2.97781 6.44668 2.95846 6.54671 2.9593 6.64757V12.2808C2.95846 12.3817 2.97781 12.4817 3.01623 12.5751C3.05465 12.6684 3.11136 12.7532 3.18307 12.8245C3.25477 12.8959 3.34004 12.9523 3.43388 12.9905C3.52773 13.0287 3.62828 13.048 3.72969 13.0471H9.37053C9.47193 13.048 9.57249 13.0287 9.66634 12.9905C9.76018 12.9523 9.84544 12.8959 9.91715 12.8245C9.98885 12.7532 10.0456 12.6684 10.084 12.5751C10.1224 12.4817 10.1418 12.3817 10.1409 12.2808V6.64757C10.1418 6.54671 10.1224 6.44668 10.084 6.35334C10.0456 6.25999 9.98885 6.17518 9.91715 6.10385C9.84544 6.03253 9.76018 5.97612 9.66634 5.9379C9.57249 5.89969 9.47193 5.88043 9.37053 5.88127H3.72969Z" fill="#202331"/>
</svg>
