<svg width="16" height="16" viewBox="0 0 16 16" fill="none" xmlns="http://www.w3.org/2000/svg">
<path fill-rule="evenodd" clip-rule="evenodd" d="M1.3335 8C1.3335 4.318 4.31816 1.33334 8.00016 1.33334C11.6822 1.33334 14.6668 4.318 14.6668 8C14.6668 11.682 11.6822 14.6667 8.00016 14.6667C4.31816 14.6667 1.3335 11.682 1.3335 8ZM12.5254 10.8226C13.0535 9.97589 13.3335 8.99795 13.3335 8C13.3353 6.81591 12.9414 5.66516 12.2142 4.73067L11.2702 3.78667C10.3668 3.08467 9.23216 2.66667 8.00016 2.66667C7.00216 2.66653 6.02413 2.94642 5.17729 3.47452C4.33046 4.00261 3.64878 4.75772 3.20978 5.65399C2.77078 6.55026 2.59207 7.55172 2.69396 8.54451C2.79585 9.53731 3.17426 10.4816 3.78616 11.27L4.73016 12.2133C5.51853 12.8252 6.46276 13.2036 7.45549 13.3055C8.44822 13.4074 9.44964 13.2288 10.3459 12.7899C11.2421 12.3509 11.9972 11.6694 12.5254 10.8226Z" fill="#202331"/>
<path d="M11.275 5.72511C11.13 5.58093 10.9338 5.5 10.7292 5.5C10.5247 5.5 10.3285 5.58093 10.1835 5.72511L7.09031 8.81826L5.81686 7.5448C5.5167 7.24464 5.02544 7.24464 4.72529 7.5448C4.42513 7.84496 4.42513 8.33622 4.72529 8.63638L6.54468 10.4558C6.68973 10.5999 6.88594 10.6809 7.09046 10.6809C7.29498 10.6809 7.4912 10.5999 7.63625 10.4558L11.275 6.81699C11.4192 6.67188 11.5002 6.47562 11.5002 6.27105C11.5002 6.06648 11.4192 5.87021 11.275 5.72511Z" fill="#202331"/>
</svg>
