<svg width="16" height="16" viewBox="0 0 16 16" fill="none" xmlns="http://www.w3.org/2000/svg">
<path d="M8.00016 14.6667C11.6822 14.6667 14.6668 11.682 14.6668 8C14.6668 4.318 11.6822 1.33334 8.00016 1.33334C4.31816 1.33334 1.3335 4.318 1.3335 8C1.3335 11.682 4.31816 14.6667 8.00016 14.6667ZM2.66683 8C2.66682 7.00205 2.9468 6.02412 3.47494 5.17738C4.00308 4.33064 4.7582 3.64906 5.65445 3.21014C6.55069 2.77122 7.55211 2.59256 8.54484 2.69448C9.53757 2.7964 10.4818 3.1748 11.2702 3.78667L3.78616 11.2693C3.05897 10.3348 2.66498 9.1841 2.66683 8ZM8.00016 13.3333C6.76816 13.3333 5.6335 12.9153 4.73016 12.2133L12.2142 4.73C12.8261 5.51842 13.2045 6.4627 13.3064 7.45549C13.4083 8.44829 13.2295 9.44975 12.7905 10.346C12.3515 11.2423 11.6699 11.9974 10.823 12.5255C9.9762 13.0536 8.99817 13.3335 8.00016 13.3333Z" fill="#202331"/>
</svg>
