<svg width="18" height="18" viewBox="0 0 18 18" fill="none" xmlns="http://www.w3.org/2000/svg">
<path fill-rule="evenodd" clip-rule="evenodd" d="M0.690219 16.0964C0.640835 16.1456 0.610422 16.2106 0.604317 16.2802L0.542226 16.9805C0.538478 17.0221 0.543459 17.064 0.55685 17.1037C0.570241 17.1433 0.591747 17.1797 0.61999 17.2106C0.648234 17.2415 0.682593 17.2662 0.720867 17.2831C0.759141 17.3 0.800486 17.3088 0.842256 17.3088C0.851454 17.3088 0.860651 17.3088 0.870552 17.3067L1.57087 17.2446C1.6405 17.2383 1.70558 17.2077 1.75463 17.158L7.40914 11.5012L12.2892 16.3812L13.4033 10.8103L17.3086 6.90498L10.9447 0.541016L7.03938 4.44631L1.46846 5.56049L6.34848 10.4405L0.691623 16.0974L0.690219 16.0964ZM15.1873 6.90498L10.9447 2.66234L7.7789 5.82811L4.51098 6.48169L11.368 13.3387L12.0215 10.0708L15.1873 6.90498Z" fill="#313650"/>
</svg>
