<svg width="16" height="16" viewBox="0 0 16 16" fill="none" xmlns="http://www.w3.org/2000/svg">
<path d="M4.72596 14.3371C4.66115 14.4219 4.53315 14.4206 4.46996 14.3347L2.43127 11.5614C2.3536 11.4557 2.42905 11.3066 2.56019 11.3066H6.72017C6.85272 11.3066 6.92778 11.4585 6.84726 11.5638L4.72596 14.3371Z" fill="#202331"/>
<path d="M13.444 12.1066C13.444 12.5484 13.0858 12.9066 12.6439 12.9066C12.2021 12.9066 11.8439 12.5484 11.8439 12.1066L11.844 5.7066C11.844 4.8778 11.4397 4.01138 10.8537 3.42533C10.2676 2.83928 9.47276 2.51004 8.64395 2.51004C7.81515 2.51004 7.0203 2.83928 6.43425 3.42533C5.84819 4.01138 5.51895 4.80624 5.51895 5.63504L5.45318 11.3159C5.44811 11.754 5.08685 12.1066 4.64864 12.1066C4.20681 12.1066 3.84399 11.7484 3.84399 11.3066L3.84399 5.63504C3.84399 2.94254 5.95145 0.906597 8.64395 0.906597C11.3365 0.906597 13.444 3.0141 13.444 5.7066L13.444 12.1066Z" fill="#202331"/>
</svg>
