<svg width="16" height="16" viewBox="0 0 16 16" fill="none" xmlns="http://www.w3.org/2000/svg">
<path d="M0 8C0 12.4117 3.58833 16 8 16C9.03599 16 10.0266 15.8021 10.936 15.4422C10.7337 15.151 10.5781 14.825 10.4798 14.4751C9.70943 14.7711 8.87332 14.9333 8 14.9333C4.17667 14.9333 1.06667 11.8233 1.06667 8C1.06667 4.17667 4.17667 1.06667 8 1.06667C11.8233 1.06667 14.9333 4.17667 14.9333 8C14.9333 8.87332 14.7711 9.70943 14.4751 10.4798C14.825 10.5781 15.151 10.7337 15.4422 10.936C15.8021 10.0266 16 9.03599 16 8C16 3.58833 12.4117 0 8 0C3.58833 0 0 3.58833 0 8Z" fill="#202331"/>
<path d="M4.80002 5.59998C4.80002 6.04165 5.15835 6.39998 5.60002 6.39998C6.04168 6.39998 6.40002 6.04165 6.40002 5.59998C6.40002 5.15832 6.04168 4.79998 5.60002 4.79998C5.15835 4.79998 4.80002 5.15832 4.80002 5.59998Z" fill="#202331"/>
<path d="M9.60002 5.59998C9.60002 6.04165 9.95835 6.39998 10.4 6.39998C10.8417 6.39998 11.2 6.04165 11.2 5.59998C11.2 5.15832 10.8417 4.79998 10.4 4.79998C9.95835 4.79998 9.60002 5.15832 9.60002 5.59998Z" fill="#202331"/>
<path d="M5.14306 11.5097C5.90139 12.2847 6.91667 12.711 8 12.711C9.08333 12.711 10.0986 12.2847 10.8569 11.5097C11.5944 10.7583 12 9.76382 12 8.71105C12 8.46521 11.8014 8.2666 11.5556 8.2666H4.44444C4.19861 8.2666 4 8.46521 4 8.71105C4 9.76382 4.40556 10.7583 5.14306 11.5097Z" fill="#202331"/>
<path fill-rule="evenodd" clip-rule="evenodd" d="M13.6 11.2C13.9314 11.2 14.2 11.4686 14.2 11.8V15.4C14.2 15.7314 13.9314 16 13.6 16C13.2686 16 13 15.7314 13 15.4V11.8C13 11.4686 13.2686 11.2 13.6 11.2Z" fill="#202331"/>
<path fill-rule="evenodd" clip-rule="evenodd" d="M11.2 13.6C11.2 13.2686 11.4686 13 11.8 13H15.4C15.7314 13 16 13.2686 16 13.6C16 13.9314 15.7314 14.2 15.4 14.2H11.8C11.4686 14.2 11.2 13.9314 11.2 13.6Z" fill="#202331"/>
</svg>
