<svg width="16" height="16" viewBox="0 0 16 16" fill="none" xmlns="http://www.w3.org/2000/svg">
<path fill-rule="evenodd" clip-rule="evenodd" d="M1.6001 8C1.6001 4.46528 4.46538 1.6 8.0001 1.6V2.88C5.17226 2.88 2.8801 5.17216 2.8801 8C2.8801 10.8278 5.17226 13.12 8.0001 13.12C10.8279 13.12 13.1201 10.8278 13.1201 8H14.4001C14.4001 11.5347 11.5348 14.4 8.0001 14.4C4.46538 14.4 1.6001 11.5347 1.6001 8Z" fill="#202331"/>
<path d="M8.84234 8.1712C8.72706 8.29025 8.57009 8.35994 8.40447 8.36561C8.23885 8.37128 8.07749 8.31248 7.95434 8.2016L7.93738 8.18656C7.87576 8.13106 7.82595 8.06371 7.79094 7.98853C7.75592 7.91336 7.73641 7.8319 7.73357 7.74901C7.73073 7.66613 7.74463 7.58353 7.77442 7.50613C7.80421 7.42874 7.8493 7.35814 7.90698 7.29856L11.8745 3.2H11.2001C10.7734 3.2 10.5601 2.98667 10.5601 2.56C10.5601 2.13333 10.7734 1.92 11.2001 1.92H13.4401C13.8668 1.92 14.0801 2.13333 14.0801 2.56L14.0801 4.8C14.0801 5.22667 13.8668 5.44 13.4401 5.44C13.0134 5.44 12.8001 5.22667 12.8001 4.8V4.08308L8.84234 8.1712Z" fill="#202331"/>
</svg>
