<svg width="16" height="16" viewBox="0 0 16 16" fill="none" xmlns="http://www.w3.org/2000/svg">
<path d="M6.22213 2.4C6.4638 2.40007 6.69672 2.49254 6.87516 2.65927C7.0536 2.826 7.16467 3.05494 7.18657 3.30115L7.19021 3.39096V5.05019L7.36154 5.05886C11.3035 5.29979 14.1411 7.4384 15.128 12.5697L15.1582 12.7357L15.1782 12.7945C15.1843 12.8184 15.1889 12.8426 15.1921 12.867L15.1994 12.9494C15.2024 13.0337 15.1888 13.1178 15.1592 13.1966C15.1297 13.2755 15.085 13.3474 15.0277 13.4081C14.9704 13.4688 14.9016 13.5171 14.8257 13.55C14.7497 13.5829 14.668 13.5998 14.5855 13.5997C14.4773 13.6032 14.37 13.5784 14.2737 13.5278L14.1508 13.4634L14.0128 13.3829L13.7312 13.2052L13.0205 12.7524L12.6469 12.5195L12.3103 12.3164L12.0893 12.1876L11.7394 11.9894C10.827 11.4821 9.97275 11.0901 9.17722 10.8374C8.48703 10.6188 7.86768 10.5141 7.33188 10.532L7.19021 10.5395V12.6019C7.19031 12.8276 7.11513 13.0465 6.9771 13.2225L6.91413 13.295C6.74583 13.471 6.51947 13.5767 6.27917 13.5914C6.03887 13.606 5.80184 13.5286 5.61428 13.3742L5.54466 13.3111L1.30062 9.06605C0.66613 8.51359 0.638886 7.5858 1.19406 7.02653L1.26974 6.95593L5.54405 2.68242C5.72526 2.50117 5.96869 2.39978 6.22213 2.4ZM5.97996 6.27031L5.97935 3.97872L2.08525 7.87071C2.00231 7.94255 1.99201 8.01873 2.07496 8.11101L5.97935 12.0135V9.52622L6.44008 9.4104C7.34096 9.18372 8.37806 9.28654 9.53624 9.65505C10.4177 9.93437 11.3416 10.358 12.3182 10.9018L12.5143 11.012L12.8812 11.2232C13.0005 11.2938 13.1198 11.3657 13.2457 11.4425L13.6864 11.7175L13.6767 11.6803C12.5949 7.79143 10.1725 6.32729 6.77125 6.27588L6.58478 6.27464V6.26969H5.97935L5.97996 6.27031Z" fill="#202331"/>
</svg>
